{"accessors":[{"bufferView":0,"componentType":5126,"count":1950,"max":[0.5,1.0,0.5],"min":[-0.5,-1.0,-0.5],"normalized":false,"type":"VEC3"},{"bufferView":1,"componentType":5126,"count":1950,"max":[1.0,0.0,1.0,1.0],"min":[-1.0,-2.157951530534774e-05,-1.0,1.0],"normalized":false,"type":"VEC4"},{"bufferView":2,"componentType":5126,"count":1950,"max":[1.0,1.0,1.0],"min":[-1.0,-1.0,-1.0],"normalized":false,"type":"VEC3"},{"bufferView":3,"componentType":5126,"count":1950,"max":[1.0,1.0],"min":[0.0,0.0],"normalized":false,"type":"VEC2"},{"bufferView":4,"componentType":5123,"count":10368,"max":[1949],"min":[0],"normalized":false,"type":"SCALAR"},{"bufferView":5,"componentType":5126,"count":24,"max":[0.33500000834465027,0.15000000596046448,0.35499998927116394],"min":[-0.33500000834465027,-0.15000000596046448,-0.35499998927116394],"normalized":false,"type":"VEC3"},{"bufferView":6,"componentType":5126,"count":24,"max":[1.0,0.0,1.0,1.0],"min":[-1.0,-1.5259254723787308e-05,-1.0,1.0],"normalized":false,"type":"VEC4"},{"bufferView":7,"componentType":5126,"count":24,"max":[1.0,1.0,1.0],"min":[-1.0,-1.0,-1.0],"normalized":false,"type":"VEC3"},{"bufferView":8,"componentType":5126,"count":24,"max":[1.0,1.0],"min":[0.0,0.0],"normalized":false,"type":"VEC2"},{"bufferView":9,"componentType":5121,"count":36,"max":[23],"min":[0],"normalized":false,"type":"SCALAR"}],"asset":{"generator":"Godot Engine v4.6.2.stable.official@71f334935c000924d403448e698df4441130df18","version":"2.0"},"bufferViews":[{"buffer":0,"byteLength":23400,"byteStride":12,"target":34962},{"buffer":0,"byteLength":31200,"byteOffset":23400,"byteStride":16,"target":34962},{"buffer":0,"byteLength":23400,"byteOffset":54600,"byteStride":12,"target":34962},{"buffer":0,"byteLength":15600,"byteOffset":78000,"byteStride":8,"target":34962},{"buffer":0,"byteLength":20736,"byteOffset":93600,"target":34963},{"buffer":0,"byteLength":288,"byteOffset":114336,"byteStride":12,"target":34962},{"buffer":0,"byteLength":384,"byteOffset":114624,"byteStride":16,"target":34962},{"buffer":0,"byteLength":288,"byteOffset":115008,"byteStride":12,"target":34962},{"buffer":0,"byteLength":192,"byteOffset":115296,"byteStride":8,"target":34962},{"buffer":0,"byteLength":36,"byteOffset":115488,"target":34963}],"buffers":[{"byteLength":115524,"uri":"player_export0.bin"}],"cameras":[{"perspective":{"yfov":1.3089969158172607,"zfar":4000.0,"znear":0.05000000074505806},"type":"perspective"}],"extensions":{"OMI_physics_shape":{"shapes":[{"capsule":{"height":2.0,"radius":0.5},"type":"capsule"}]}},"extensionsUsed":["GODOT_single_root","OMI_physics_body","OMI_physics_shape"],"materials":[{"pbrMetallicRoughness":{"baseColorFactor":[0.9141334891319275,6.86943531036377e-05,0.9566438794136047,1.0],"metallicFactor":0.0,"roughnessFactor":1.0}}],"meshes":[{"primitives":[{"attributes":{"NORMAL":2,"POSITION":0,"TANGENT":1,"TEXCOORD_0":3},"indices":4,"mode":4}]},{"primitives":[{"attributes":{"NORMAL":7,"POSITION":5,"TANGENT":6,"TEXCOORD_0":8},"indices":9,"material":0,"mode":4}]}],"nodes":[{"children":[1,4,5],"extensions":{"OMI_physics_body":{"motion":{"type":"kinematic"}}},"name":"Player"},{"children":[2],"name":"CameraPivot","translation":[0.0,2.0,0.0]},{"children":[3],"name":"SpringArm3D"},{"camera":0,"name":"Camera3D"},{"extensions":{"OMI_physics_body":{"collider":{"shape":0}}},"name":"CollisionShape3D","translation":[0.0,1.0,0.0]},{"children":[6,7],"name":"Model"},{"mesh":0,"name":"MeshInstance3D","translation":[0.0,1.0,0.0]},{"mesh":1,"name":"MeshInstance3D2","translation":[0.0,1.4347960948944092,-0.3748529553413391]}],"scene":0,"scenes":[{"nodes":[0]}]}